<svg id="Layer_1" data-name="Layer 1" xmlns="http://www.w3.org/2000/svg" width="846.26" height="842.22" viewBox="0 0 846.26 842.22"><defs><style>.cls-1{fill:#231f20;}.cls-2{fill:#eeddbe;}</style></defs><path class="cls-1" d="M415.22,1.87l17-.25c9,5.38,8.62,14.68,8.14,23-1.06,18.46,6.42,25,25.26,26.69,158.23,14,297.14,141.48,325.51,297.49.93,5.07,1.54,10.2,2.39,15.29,6,36,6,36,42.56,44.28,4.34,1,8.07,2.86,10.1,7.12q0,6.13.07,12.25c-3.78,7.39-11.16,8.71-17.73,7.88C802.58,432.3,797.68,447,795,468.72c-19.43,156.7-142.64,287.82-296.23,319.34-2.53.52-5,1.64-7.55,1.65-31.28.12-56.17,7.36-53.68,46.49.14,2.26-2.94,4-5.18,5.36l-17.1-.29c-10.35-4.41-8.75-14.14-8.68-22.14.15-17.19-8.2-24.17-24.62-26.37C236.55,773.34,137,693.08,76.56,561.67,62.46,531,56.4,497.86,52,464.69,49.56,446,44,434.33,22.2,435.42c-13.26.66-24.51-4.25-17.93-21.78l.21-.1A26.55,26.55,0,0,1,16,408c33.91-6.25,33.91-6.26,38.42-40.66C76.16,201.63,218.62,64.49,383.83,51.15c17.17-1.39,25.42-6,23.21-24.54C406,18,404,7.24,415.22,1.87Z"/><path class="cls-2" d="M432.34,841.56c-.12-49.26-.12-49.26,48.63-56.83,164.45-25.54,295.37-164.69,308.32-330,1.72-21.94,8.52-28.07,28.83-25.41,9.15,1.2,18.75-1,28.14-1.66-4.43,67.18-16.44,132.47-50.35,191.82-69.14,121-170.08,197-309.95,218.23C468,840.47,450.46,843.62,432.34,841.56Z"/><path class="cls-2" d="M415.22,1.87C416.16,51,416.16,51,367.43,59,200.8,86.44,78.8,214.26,58.89,385.7c-3,25.43-11.14,32-33.79,28.27-6.71-1.1-13.73-.34-20.62-.43C1.13,215.7,155.84,41.47,348.9,7.05,370.38,3.22,392.62-3.19,415.22,1.87Z"/><path class="cls-2" d="M4.27,413.64C-.57,430,10,431.34,21.13,429.46c26.3-4.47,34.62,4.34,38.18,32.34C82.2,641.73,211.49,766.86,392.15,786.39c18.4,2,26.45,7.56,23.61,26.56-1.38,9.26-.42,18.87-.52,28.32C339.48,842.55,270,820.75,206,781.79,92.34,712.58,27.3,610,6.46,479.89,3.09,458.82-4.92,436,4.27,413.64Z"/><path class="cls-2" d="M846.19,415.44c-17.79-1.38-41.67,3.61-51.67-5.92s-6.17-33.7-8.91-51.36c-23.73-153.47-161.86-285-315.4-300.57-37.87-3.83-37.87-3.83-37.91-40.49q0-7.74-.07-15.48c91.58.11,173,29.73,245.37,84.93,88.3,67.4,142.76,155.8,161.83,265.31C843.08,372.81,844,394.24,846.19,415.44Z"/><path class="cls-2" d="M432.3,664.93c0-28.35.59-56.71-.25-85-.41-13.83,3.6-20.33,18.34-21,22.54-1,44.15-7.73,64-17.93,11.82-6.06,18.44-2.83,26.62,5.51,31.27,31.93,63.43,63,94.62,95,26.69,27.38,25.44,41.57-4.57,63.32-53.32,38.63-112.56,61.28-178.52,66.63-15.58,1.26-21.37-2.33-20.63-18.9C433.23,723.38,432.31,694.13,432.3,664.93Z"/><path class="cls-2" d="M415.87,177.09c0,28.36-.51,56.73.22,85.07.36,14-1.77,22.57-18.91,22.82-18.93.27-37.62,5.66-54.45,14.08-13.87,6.95-22.49,5.21-33.06-6-25.93-27.53-53.11-53.88-80.11-80.39-8.77-8.6-15.14-18.46-20.28-29.46-9.74-20.85-7.06-36.38,14.05-50.07,50.64-32.83,104.89-54,165.12-60.67,20.46-2.26,29.66,1.74,27.9,24.77C414.32,123.7,415.88,150.46,415.87,177.09Z"/><path class="cls-2" d="M432.31,176.29c0-29.21.59-58.44-.26-87.62C431.66,75,436.14,71,449.81,72,520.45,77,583,102.34,639.38,144.48c10.79,8.07,12.76,17,8.3,29.06-4.2,11.36-8.52,22.34-17.35,31.11-30.5,30.29-61.15,60.44-91.08,91.28-7.79,8-14.1,9.23-24.53,5.19-16.71-6.47-34.38-14.86-51.57-14.72-29.6.26-33.1-13.9-31.25-38S432.3,200.35,432.31,176.29Z"/><path class="cls-2" d="M415.53,667.31c0,29.2-.56,58.42.22,87.6.37,13.79-4.38,17.49-18,16.53-69.74-4.93-131.92-29.22-187.26-71.31-22.42-17.06-11.14-36.47,1.16-51.45,19.53-23.8,44.14-43.5,63.3-67.56,25.73-32.31,50.82-45.79,94.27-27.84,44.19,18.25,46.3,13.17,46.3,62.5Q415.54,641.54,415.53,667.31Z"/><path class="cls-2" d="M120.64,413.82c-49.86,0-50.37-.08-43.66-47.36,7.87-55.48,30.21-105.28,62.38-150.85,16.52-23.41,39.77-27.78,60.91-8.21C235,239.55,267.52,274,301.39,307.11c8.72,8.51,4.34,12.42-3.23,17.36Q234.44,366.06,171,408C154.28,419.05,135.66,411.21,120.64,413.82Z"/><path class="cls-2" d="M721.24,413.82c-25.14,7.28-48-7-70.81-23.34C619,368.07,587,346.6,554.84,325.25c-10-6.65-12.6-11.14-2.41-20.88,31-29.63,60.38-61,91.53-90.46,27.87-26.39,46.28-24.07,68.19,7.31,34,48.65,53.87,102.76,61.18,161.6,3.85,31,4,31-26.77,31Z"/><path class="cls-2" d="M125.58,429.66c24.57-6.48,47.66,6.19,70.59,23.09,30.33,22.36,61.9,43.09,93.59,63.51,12.72,8.2,17,13.17,3.45,25.69-29.56,27.39-57.09,56.95-86,85-29.65,28.83-50.15,26.07-73.75-8.07C100.11,570.7,82,517.15,73.87,459.41,70.7,437,74.17,425,100,429.49,106.67,430.65,113.71,429.66,125.58,429.66Z"/><path class="cls-2" d="M542.37,524.66c46.11-30.53,89.68-62.64,136.45-89.11,27.24-15.43,60.51-4.48,91-5,7.74-.13,5.25,9.64,4.79,15.08-5.9,70.94-29.72,135-73.41,191.65-6.93,9-14.65,11.36-24.56,8-10.54-3.62-21.11-7.58-29.24-15.68C612.78,595.08,578.22,560.48,542.37,524.66Z"/><path class="cls-2" d="M522.53,421.44c.26,54.91-44.84,100.11-99.68,99.88-53.18-.22-97.9-45.55-98-99.29-.09-55.27,45-100.18,100-99.63C478.74,322.94,522.26,367.06,522.53,421.44Z"/><path class="cls-1" d="M481.8,420.65c.41,33.17-25.16,59.75-57.62,59.87A58,58,0,0,1,365.77,424c-.75-33.53,23.63-60,56.33-61.2C454.28,361.68,481.39,387.94,481.8,420.65Z"/><path class="cls-1" d="M634,481.56c21.2,31.44,9.71,66-20.19,83.94,1.39,6.69,3.61,13.17,3.94,19.75,1.08,21.72-11.09,39.25-32.33,47-20.56,7.51-41.52,7.54-62.61,2.57-1.1-.26-2.19-.59-3.3-.82-.28-.06-.61.12-1.18.25-2.08,6.62-.46,12.88,2.16,19,3.31,7.73,2.7,9.72-4.69,13.39-13.53,6.74-27.22,8-41.15,1.21-4.14-2-5.94-4.89-5.71-9.94.7-15.67-4.62-29.21-14.65-40.67a8.71,8.71,0,0,0-5.75-2.67c-23.32-.63-37.26-12.14-43.25-35.88-.36-1.45-1.21-3.35-2.35-3.92-7.93-4-13.39-10.43-17.34-17.93-9.25,2.93-18.15,6.4-27.34,8.54-19.42,4.52-38.87,4.07-57.94-2.36-28.41-9.57-46.88-37-46.24-68.36,0-1.15,0-2.31,0-3.06-7.3.76-14.48,2.46-21.55,2-17.61-1.05-32.68-8-40.54-25.63-2.81-6.31-6.28-9.61-12.09-12.6C157.59,444,147.69,424.11,149,398.69c1.25-24.57,13.1-42.46,34.79-52.45,4.22-1.94,5.91-3.76,5.94-8.95.22-29.48,13.88-50.81,37.92-65.07,21-12.48,43.66-15,67.12-9.82,3.88.86,6.28.34,9.16-2.8,22.8-24.83,51.53-33,83.4-31.58,18.81.83,35.84,7,50,20.39,2.49,2.37,4,1.39,6.25.19,35.08-18.84,81.67-10.41,108.33,19.89,4.44,5,7.56,11.34,11.55,16.85.91,1.25,3,2.53,4.35,2.33,34.1-5.09,67.5,24.3,67.42,60.31,0,9.72,1.59,16.9,8.48,24.38a78.24,78.24,0,0,1,20.83,48.1C666.22,444.12,655.93,469.25,634,481.56ZM598.2,363.08c.16,2,.22,3.86.46,5.67,2.06,15.78-.36,31.05-4.9,46-1.67,5.53-4.33,7.33-8.35,6-3.62-1.19-4.36-4.33-3.2-9.69,1.91-8.89,4.27-17.82,4.88-26.84,1.45-21.35-4.21-40.21-21.85-52.8-18-12.84-37.37-13.44-57.27-4.75-3.34,1.45-4,3.21-3.09,6.93,3.54,15.21,1.45,29.91-4.67,44.06-1.57,3.63-4.34,5-7.93,3.48s-4.38-4.66-3.15-8.38c.48-1.43,1.12-2.81,1.64-4.23,9.37-25.19,1.25-49.74-20.95-63.47a65.51,65.51,0,0,0-41-9.56c-18.59,1.56-35.45,8.18-49.05,21.72-16,15.91-17.41,35.35-10.27,56.17,1.35,3.94,1.58,7.39-2.55,9.49-3.52,1.78-6.86,0-8.59-4.77-6-16.4-7-33-.52-49.48,1.42-3.6.72-5.33-1.88-7.51-18.57-15.57-39.2-18.86-61.61-11.46-30.25,10-47.81,38.11-44.57,71A89.17,89.17,0,0,0,261.18,416c2.07,3.69,1.75,7.13-1.75,9.23s-6.57,1-8.62-2.76c-.32-.59-.73-1.12-1-1.71a104.26,104.26,0,0,1-12.62-46.43c-.06-1.74-.34-3.94-1.37-5.08-9.07-10.05-20-16.23-33.53-15-29.62,2.63-48.56,33.76-39.08,63.86,4.09,13,12.26,21.82,23.71,26.88,2.65-7.64,4.46-15.25,7.82-22,5.39-10.87,14.42-17.6,25.81-20.57,5.14-1.34,8.83,1.12,8.8,5.68,0,4-2.46,5.64-6,6.68-12.42,3.61-19.6,12.58-22.33,25.54-2.48,11.8-1,22.61,8.09,31.17,11.15,10.51,30.49,13.1,43.6,5.49a16.59,16.59,0,0,0,6.51-6.95c7.34-16.27,19.15-26.95,35.41-32.39,2.23-.74,4.48-1.41,7.24-2.28-10.75-12.54-13.54-26.75-11-42.49.2-1.23-1-3-1.93-4.1-5.5-6.23-9.52-13.27-11-21.69-.94-5.43.62-8.38,4.44-9.15s6,1.56,7.46,6.7c1.17,4.22,3.07,8.22,5.09,13.5,2.12-3.92,3.4-6.41,4.79-8.82,2.41-4.15,6.28-5.66,9.25-3.35,3.53,2.73,3.06,6.06,1.18,9.86A98.65,98.65,0,0,0,304,390.62c-5.28,17.41-.76,32.21,13.91,42,6.35,4.22,14.21,5.95,21.65,8.91,7.81-15.23,20-24.13,34.87-29.48,14.5-5.21,29.52-6.33,43.64-6.15-.44-8.58-.74-16.61-1.36-24.61a8.75,8.75,0,0,0-2.23-5A48.58,48.58,0,0,1,402,353.67c-1.33-5.11,0-8.56,3.54-9.54,3.94-1.08,6.13.84,8,5.91,1.76,4.88,4.09,9.53,6.69,15.47,1.75-3.93,2.71-6.23,3.79-8.46s2-4.73,3.56-6.6c1.36-1.64,3.39-3.42,5.3-3.66,5-.64,7.23,4.61,5.06,10-3.18,7.9-6.53,15.83-8.65,24.07-1.92,7.46-.57,15,2.54,22.26,2.65,6.22,8.32,6.31,13.05,8.41a52.78,52.78,0,0,1,27.58,27.35,20.79,20.79,0,0,0,1.88-1.38c15-14.45,32.56-21.45,52.92-21.37a15,15,0,0,0,8.74-3.44c10-8.16,14.88-18.9,13.31-32.4-.45-3.85.62-6.88,4.56-7.66s6.49,1.25,7.24,5.49a27.72,27.72,0,0,1,.5,3.51,49.69,49.69,0,0,1-9.48,32.31c-1.21,1.69-2.51,3.31-4,5.31,21.69,6.42,38.2,18.39,45.4,42.18,10.87-7.53,20.39-15.06,22.81-28.87.72-4.13,2.88-6.61,7-5.91s5.76,4.07,4.77,8c-1.33,5.17-2.85,10.48-5.41,15-2.9,5.17-7.05,9.56-10.75,14.42,2.11,1.14,4.71,2,6.61,3.68,5.07,4.52,9.64,3.08,14.37-.44,12.81-9.53,19.34-22.94,19.65-38.95.51-25.79-11.41-45.27-31-59.85A29,29,0,0,0,598.2,363.08Zm-3,110.38c-.2,3.52-.24,6.72-.61,9.88-1.29,11-4.35,21.18-12,29.25-2.75,2.89-5.95,3.74-9,.63s-2.32-6.33.25-9.45c13.8-16.79,11.81-44.66-4.2-59.14-22.65-20.48-59.85-21.18-83.13-1.69-6.44,5.39-11.9,11-8.67,20.77a6.22,6.22,0,0,1,.12,2c-.15,11.11-1.44,22-6.81,31.85-2,3.71-5.22,4.82-8.64,2.81s-3.37-5-2.11-8.81c2.2-6.64,4.55-13.45,5.27-20.37,2.79-27.11-12.74-47.67-38.47-51.66a103.18,103.18,0,0,0-45.63,3.28c-10.41,3.1-19.76,8.28-26.75,17.38-7.44,9.7-10.23,21.07-10.5,33.13-.19,8.44.83,16.9.83,25.36,0,8.08-3.91,13.78-11.14,16.77-10.2,4.22-26-4.81-27.69-16.18-.32-2.18,1.36-5.62,3.15-7,2.55-1.95,5.56-.77,7.52,2.16,1.38,2.07,2.41,4.76,4.3,6,2.5,1.65,5.89,3.37,8.52,2.88,3.84-.72,3.8-5,3.4-8.43-1.59-13.87-1.6-27.66,1.7-41.19a45.25,45.25,0,0,0-63.44,18.76c-14.32,28.62.21,66.78,30.26,77.54,26.91,9.65,53.62,6.89,79.11-6.08,5.5-2.8,10.1-7.73,14.75-12.1,1.13-1.07,1.36-3.91,1.08-5.78q-1.59-10.76-3.88-21.38c-.43-2-1.61-4.41-3.15-5.33a43.61,43.61,0,0,1-15.77-16.84c-2.62-4.74-2.17-8,1.22-10.16s6.19-.88,9.13,3.55c2.52,3.8,5.43,7.32,8.8,11.81,1.5-6,2.55-10.59,3.77-15.1,1.12-4.19,3.68-6.37,8-5.28,3.55.9,4.59,4.31,3.57,9-1.35,6.25-3,12.56-3.29,18.91-1.23,24.2,6.23,44.16,27.68,56,17.17,9.44,35.93,11.64,54.77,8.85,35.15-5.19,50-33.47,36.58-68-1.38-3.55-1.19-6.75,2.31-8.74,3.8-2.16,6.69-.35,8.45,3.19,1.87,3.78,3.25,7.83,5.34,13,1.21-4.15,2.28-7.13,2.91-10.2.84-4.09,2.88-6.53,7-5.94s6,4,4.77,7.78c-2.24,6.77-4.5,13.83-8.36,19.61-3.2,4.8-6.11,8.94-6.64,15.08a35.42,35.42,0,0,1-4.22,13.9c-2.59,4.61-1.06,7.05,2.18,9.64.77.61,1.5,1.28,2.28,1.88,21.13,16.12,57.32,14.36,77-3.74,18.14-16.68,20.9-39,6.95-58.3C617,479.49,607.44,474.07,595.21,473.46Zm28.09-120.6c3.16-29-29-61.22-53.45-52.06a11.29,11.29,0,0,0,.09,1.39c1.15,6.26,0,9.5-4.08,10.12-5,.77-6.46-2.74-7.67-7.08a72.68,72.68,0,0,0-16.35-29.61c-15-16.57-34.12-23.27-55.33-24.26a68.16,68.16,0,0,0-38.5,9.2c1.91,6.48,1.4,9.51-2.06,11-4.66,2-6.69-1.31-9.33-4.69-3.94-5.06-8.27-10.11-13.33-13.83-18.86-13.84-40.23-14.89-61.9-10.91-26.84,4.92-48.2,18.76-61.19,44.81-1.88,3.77-5,5.05-8.54,3.09-3.33-1.87-3.89-5.15-2.25-8.76.95-2.06,1.85-4.15,2.8-6.3-48.93-11.5-94,22.62-90.15,66.37a53.12,53.12,0,0,1,36.75,13.38c2-6,3.89-11.48,5.67-16.75-3-3.32-6-6.38-8.72-9.71-2.55-3.15-2.69-6.65.54-9.36,3-2.51,6-1.7,8.6,1.15,2,2.19,3.94,4.39,5.81,6.48,28.6-32.65,61.87-42,100.49-24.73.68-6.64,1-13.22,2.12-19.67.88-5.24,3.79-7.18,7.69-6.25,3.67.88,5,4.09,3.8,9.32a38.76,38.76,0,0,0,2.73,26.33c18.1-18.18,39.44-27.72,64.2-28.59,25.24-.89,46.69,7.93,64.13,28.17a76.25,76.25,0,0,0,.63-14.83c-.24-4.24.55-7.52,5-8.38,3.95-.77,6.59,1.66,6.9,6.94.35,5.83.08,11.71.08,17.75,1.51-.39,2.91-.72,4.3-1.13,32.94-9.74,67.61,5,80.74,36.46a4,4,0,0,0,2.61,2.27C605.16,351.2,614.21,352,623.3,352.86ZM418.05,579c4.25,14.16,13.12,21.75,27.11,22.59a73.84,73.84,0,0,0,13.5-.85c5.37-.67,8.39,2.35,7.76,7.87a7.68,7.68,0,0,0,.88,4.89A72.93,72.93,0,0,1,481.13,654c.05,1.41,1.35,3.61,2.51,4a30.79,30.79,0,0,0,23.4-1.2c-.58-9.76-1.12-18.7-1.69-28.38-.86-.45-2.74-1.4-4.58-2.44a81.32,81.32,0,0,1-25.93-22.53c-3.35-4.54-3.32-8.16-.2-10.69s6.39-1.6,9.76,3a52.48,52.48,0,0,0,3.48,4.23c15.65,17.09,35.33,24.46,57.4,25.5,14.65.69,29.14-.71,42.46-7.94,15.61-8.48,22.28-27,15.75-42.57-1.22-2.9-2.31-3.95-5.73-3-17.35,4.79-34.7,4.41-51.33-2.87-7.42-3.24-14.06-8.42-21.22-12.82-25.22,28.11-99.75,21.81-121.34-14.41l-8.15,7.5c4.17,9.67,10.93,15.58,21.16,15.88,5.31.16,8.48,5.7,6,9.27C421.75,576.17,419.9,577.34,418.05,579Z"/><path class="cls-1" d="M598.2,363.08a29,29,0,0,1,23.29,5.42c19.55,14.58,31.47,34.06,31,59.85-.31,16-6.84,29.42-19.65,38.95-4.73,3.52-9.3,5-14.37.44-1.9-1.7-4.5-2.54-6.61-3.68,3.7-4.86,7.85-9.25,10.75-14.42,2.56-4.56,4.08-9.87,5.41-15,1-3.88-.65-7.25-4.77-8s-6.25,1.78-7,5.91c-2.42,13.81-11.94,21.34-22.81,28.87-7.2-23.79-23.71-35.76-45.4-42.18,1.52-2,2.82-3.62,4-5.31a49.69,49.69,0,0,0,9.48-32.31,27.72,27.72,0,0,0-.5-3.51c-.75-4.24-3.2-6.29-7.24-5.49s-5,3.81-4.56,7.66c1.57,13.5-3.3,24.24-13.31,32.4a15,15,0,0,1-8.74,3.44c-20.36-.08-38,6.92-52.92,21.37a20.79,20.79,0,0,1-1.88,1.38,52.78,52.78,0,0,0-27.58-27.35c-4.73-2.1-10.4-2.19-13.05-8.41-3.11-7.26-4.46-14.8-2.54-22.26,2.12-8.24,5.47-16.17,8.65-24.07,2.17-5.39-.09-10.64-5.06-10-1.91.24-3.94,2-5.3,3.66-1.55,1.87-2.47,4.34-3.56,6.6s-2,4.53-3.79,8.46c-2.6-5.94-4.93-10.59-6.69-15.47-1.83-5.07-4-7-8-5.91-3.58,1-4.87,4.43-3.54,9.54a48.58,48.58,0,0,0,12.47,22.55,8.75,8.75,0,0,1,2.23,5c.62,8,.92,16,1.36,24.61-14.12-.18-29.14.94-43.64,6.15-14.91,5.35-27.06,14.25-34.87,29.48-7.44-3-15.3-4.69-21.65-8.91-14.67-9.77-19.19-24.57-13.91-42a98.65,98.65,0,0,1,6.18-14.84c1.88-3.8,2.35-7.13-1.18-9.86-3-2.31-6.84-.8-9.25,3.35-1.39,2.41-2.67,4.9-4.79,8.82-2-5.28-3.92-9.28-5.09-13.5-1.42-5.14-3.63-7.48-7.46-6.7s-5.38,3.72-4.44,9.15c1.46,8.42,5.48,15.46,11,21.69,1,1.1,2.13,2.87,1.93,4.1-2.58,15.74.21,29.95,11,42.49-2.76.87-5,1.54-7.24,2.28C278.3,443,266.49,453.72,259.15,470a16.59,16.59,0,0,1-6.51,6.95c-13.11,7.61-32.45,5-43.6-5.49-9.08-8.56-10.57-19.37-8.09-31.17,2.73-13,9.91-21.93,22.33-25.54,3.57-1,6-2.64,6-6.68,0-4.56-3.66-7-8.8-5.68-11.39,3-20.42,9.7-25.81,20.57-3.36,6.77-5.17,14.38-7.82,22-11.45-5.06-19.62-13.9-23.71-26.88-9.48-30.1,9.46-61.23,39.08-63.86,13.57-1.2,24.46,5,33.53,15,1,1.14,1.31,3.34,1.37,5.08a104.26,104.26,0,0,0,12.62,46.43c.31.59.72,1.12,1,1.71,2.05,3.79,5.25,4.78,8.62,2.76s3.82-5.54,1.75-9.23a89.17,89.17,0,0,1-11.36-35.3c-3.24-32.9,14.32-61,44.57-71,22.41-7.4,43-4.11,61.61,11.46,2.6,2.18,3.3,3.91,1.88,7.51-6.49,16.48-5.47,33.08.52,49.48,1.73,4.75,5.07,6.55,8.59,4.77,4.13-2.1,3.9-5.55,2.55-9.49-7.14-20.82-5.72-40.26,10.27-56.17,13.6-13.54,30.46-20.16,49.05-21.72a65.51,65.51,0,0,1,41,9.56c22.2,13.73,30.32,38.28,20.95,63.47-.52,1.42-1.16,2.8-1.64,4.23-1.23,3.72-.52,6.8,3.15,8.38s6.36.15,7.93-3.48c6.12-14.15,8.21-28.85,4.67-44.06-.87-3.72-.25-5.48,3.09-6.93,19.9-8.69,39.27-8.09,57.27,4.75,17.64,12.59,23.3,31.45,21.85,52.8-.61,9-3,17.95-4.88,26.84-1.16,5.36-.42,8.5,3.2,9.69,4,1.33,6.68-.47,8.35-6,4.54-15,7-30.26,4.9-46C598.42,366.94,598.36,365.11,598.2,363.08Z"/><path class="cls-1" d="M595.21,473.46c12.23.61,21.74,6,28.82,15.83,14,19.29,11.19,41.62-6.95,58.3-19.67,18.1-55.86,19.86-77,3.74-.78-.6-1.51-1.27-2.28-1.88-3.24-2.59-4.77-5-2.18-9.64a35.42,35.42,0,0,0,4.22-13.9c.53-6.14,3.44-10.28,6.64-15.08,3.86-5.78,6.12-12.84,8.36-19.61,1.25-3.77-.49-7.18-4.77-7.78s-6.17,1.85-7,5.94c-.63,3.07-1.7,6.05-2.91,10.2-2.09-5.15-3.47-9.2-5.34-13-1.76-3.54-4.65-5.35-8.45-3.19-3.5,2-3.69,5.19-2.31,8.74,13.42,34.5-1.43,62.78-36.58,68-18.84,2.79-37.6.59-54.77-8.85-21.45-11.8-28.91-31.76-27.68-56,.32-6.35,1.94-12.66,3.29-18.91,1-4.74,0-8.15-3.57-9-4.28-1.09-6.84,1.09-8,5.28-1.22,4.51-2.27,9.07-3.77,15.1-3.37-4.49-6.28-8-8.8-11.81-2.94-4.43-5.76-5.7-9.13-3.55s-3.84,5.42-1.22,10.16a43.61,43.61,0,0,0,15.77,16.84c1.54.92,2.72,3.36,3.15,5.33q2.31,10.6,3.88,21.38c.28,1.87.05,4.71-1.08,5.78-4.65,4.37-9.25,9.3-14.75,12.1-25.49,13-52.2,15.73-79.11,6.08-30.05-10.76-44.58-48.92-30.26-77.54a45.25,45.25,0,0,1,63.44-18.76c-3.3,13.53-3.29,27.32-1.7,41.19.4,3.45.44,7.71-3.4,8.43-2.63.49-6-1.23-8.52-2.88-1.89-1.24-2.92-3.93-4.3-6-2-2.93-5-4.11-7.52-2.16-1.79,1.36-3.47,4.8-3.15,7,1.65,11.37,17.49,20.4,27.69,16.18,7.23-3,11.14-8.69,11.14-16.77,0-8.46-1-16.92-.83-25.36.27-12.06,3.06-23.43,10.5-33.13,7-9.1,16.34-14.28,26.75-17.38a103.18,103.18,0,0,1,45.63-3.28c25.73,4,41.26,24.55,38.47,51.66-.72,6.92-3.07,13.73-5.27,20.37-1.26,3.81-1.17,6.9,2.11,8.81s6.63.9,8.64-2.81c5.37-9.88,6.66-20.74,6.81-31.85a6.22,6.22,0,0,0-.12-2c-3.23-9.74,2.23-15.38,8.67-20.77,23.28-19.49,60.48-18.79,83.13,1.69,16,14.48,18,42.35,4.2,59.14-2.57,3.12-3.21,6.4-.25,9.45s6.22,2.26,9-.63c7.69-8.07,10.75-18.29,12-29.25C595,480.18,595,477,595.21,473.46Z"/><path class="cls-1" d="M623.3,352.86c-9.09-.86-18.14-1.66-27.16-2.67a4,4,0,0,1-2.61-2.27c-13.13-31.5-47.8-46.2-80.74-36.46-1.39.41-2.79.74-4.3,1.13,0-6,.27-11.92-.08-17.75-.31-5.28-3-7.71-6.9-6.94-4.46.86-5.25,4.14-5,8.38a76.25,76.25,0,0,1-.63,14.83c-17.44-20.24-38.89-29.06-64.13-28.17-24.76.87-46.1,10.41-64.2,28.59a38.76,38.76,0,0,1-2.73-26.33c1.19-5.23-.13-8.44-3.8-9.32-3.9-.93-6.81,1-7.69,6.25-1.09,6.45-1.44,13-2.12,19.67-38.62-17.32-71.89-7.92-100.49,24.73-1.87-2.09-3.83-4.29-5.81-6.48-2.56-2.85-5.6-3.66-8.6-1.15-3.23,2.71-3.09,6.21-.54,9.36,2.71,3.33,5.72,6.39,8.72,9.71-1.78,5.27-3.65,10.78-5.67,16.75a53.12,53.12,0,0,0-36.75-13.38c-3.87-43.75,41.22-77.87,90.15-66.37-.95,2.15-1.85,4.24-2.8,6.3-1.64,3.61-1.08,6.89,2.25,8.76,3.53,2,6.66.68,8.54-3.09,13-26.05,34.35-39.89,61.19-44.81,21.67-4,43-2.93,61.9,10.91,5.06,3.72,9.39,8.77,13.33,13.83,2.64,3.38,4.67,6.71,9.33,4.69,3.46-1.49,4-4.52,2.06-11a68.16,68.16,0,0,1,38.5-9.2c21.21,1,40.3,7.69,55.33,24.26a72.68,72.68,0,0,1,16.35,29.61c1.21,4.34,2.67,7.85,7.67,7.08,4.06-.62,5.23-3.86,4.08-10.12a11.29,11.29,0,0,1-.09-1.39C594.32,291.64,626.46,323.86,623.3,352.86Z"/><path class="cls-1" d="M418.05,579c1.85-1.69,3.7-2.86,4.86-4.55,2.45-3.57-.72-9.11-6-9.27-10.23-.3-17-6.21-21.16-15.88l8.15-7.5c21.59,36.22,96.12,42.52,121.34,14.41,7.16,4.4,13.8,9.58,21.22,12.82,16.63,7.28,34,7.66,51.33,2.87,3.42-.95,4.51.1,5.73,3,6.53,15.6-.14,34.09-15.75,42.57-13.32,7.23-27.81,8.63-42.46,7.94-22.07-1-41.75-8.41-57.4-25.5a52.48,52.48,0,0,1-3.48-4.23c-3.37-4.55-6.55-5.53-9.76-3s-3.15,6.15.2,10.69A81.32,81.32,0,0,0,500.77,626c1.84,1,3.72,2,4.58,2.44.57,9.68,1.11,18.62,1.69,28.38a30.79,30.79,0,0,1-23.4,1.2c-1.16-.4-2.46-2.6-2.51-4a72.93,72.93,0,0,0-13.83-40.46,7.68,7.68,0,0,1-.88-4.89c.63-5.52-2.39-8.54-7.76-7.87a73.84,73.84,0,0,1-13.5.85C431.17,600.78,422.3,593.19,418.05,579Z"/><path d="M591.91,464.54c17.25,24.4,7.9,51.23-16.42,65.16,1.13,5.19,2.94,10.22,3.21,15.33.88,16.87-9,30.48-26.3,36.5-16.72,5.84-33.77,5.86-50.92,2-.9-.2-1.78-.45-2.69-.63a3,3,0,0,0-1,.19c-1.69,5.14-.37,10,1.76,14.74,2.7,6,2.2,7.54-3.81,10.39-11,5.23-22.14,6.17-33.47.94-3.37-1.56-4.83-3.79-4.65-7.72.57-12.16-3.75-22.67-11.91-31.57a7.23,7.23,0,0,0-4.68-2.07c-19-.49-30.31-9.43-35.18-27.86-.29-1.13-1-2.6-1.91-3-6.45-3.08-10.89-8.1-14.11-13.93-7.51,2.28-14.76,5-22.23,6.63a88.84,88.84,0,0,1-47.12-1.82,54,54,0,0,1-37.62-53.07c0-.9,0-1.8,0-2.38-5.94.59-11.78,1.91-17.53,1.58-14.32-.82-26.58-6.23-33-19.91-2.29-4.9-5.12-7.46-9.84-9.78-18.13-8.89-26.17-24.29-25.12-44,1-19.08,10.65-33,28.3-40.72,3.43-1.51,4.8-2.92,4.83-7,.18-22.89,11.29-39.45,30.84-50.52,17.12-9.69,35.52-11.67,54.6-7.62,3.15.66,5.1.26,7.44-2.17C342,272.94,365.38,266.6,391.3,267.7c15.3.64,29.15,5.41,40.65,15.83,2,1.84,3.26,1.07,5.09.14,28.53-14.63,66.42-8.08,88.11,15.44,3.61,3.92,6.15,8.8,9.39,13.08a4.68,4.68,0,0,0,3.54,1.81c27.74-3.95,54.9,18.87,54.83,46.82,0,7.56,1.3,13.13,6.9,18.93a59.46,59.46,0,0,1,16.94,37.35C618.15,435.47,609.77,455,591.91,464.54Zm-29.09-92c.13,1.57.18,3,.37,4.4,1.68,12.26-.29,24.1-4,35.75-1.36,4.29-3.53,5.69-6.8,4.66-2.94-.93-3.54-3.37-2.6-7.53,1.56-6.9,3.48-13.83,4-20.84,1.17-16.57-3.43-31.22-17.78-41-14.64-10-30.39-10.43-46.58-3.69-2.72,1.13-3.22,2.5-2.51,5.38,2.88,11.81,1.17,23.23-3.8,34.21-1.28,2.82-3.53,3.9-6.45,2.7s-3.56-3.62-2.56-6.5c.39-1.11.91-2.18,1.33-3.28,7.62-19.56,1-38.63-17-49.29a55.32,55.32,0,0,0-33.31-7.41c-15.12,1.21-28.83,6.35-39.9,16.86-13,12.35-14.16,27.44-8.35,43.61,1.1,3.05,1.28,5.74-2.08,7.36-2.86,1.39-5.57,0-7-3.7-4.88-12.74-5.71-25.62-.43-38.41,1.16-2.8.59-4.14-1.52-5.83-15.11-12.09-31.89-14.65-50.12-8.9-24.6,7.76-38.88,29.59-36.25,55.13a67.11,67.11,0,0,0,9.25,27.41c1.68,2.85,1.42,5.53-1.43,7.16s-5.35.8-7-2.15c-.26-.45-.59-.87-.85-1.32a78.24,78.24,0,0,1-10.26-36c-.05-1.35-.28-3.06-1.12-3.94-7.38-7.8-16.23-12.6-27.27-11.67-24.09,2-39.49,26.21-31.78,49.58a33,33,0,0,0,19.28,20.87c2.15-5.94,3.63-11.84,6.36-17.1,4.38-8.44,11.73-13.67,21-16,4.18-1,7.19.87,7.16,4.41,0,3.13-2,4.38-4.91,5.19-10.1,2.8-15.94,9.76-18.15,19.82-2,9.16-.81,17.56,6.57,24.2,9.07,8.16,24.8,10.18,35.46,4.26a13.1,13.1,0,0,0,5.3-5.39c6-12.63,15.58-20.92,28.8-25.14,1.81-.58,3.64-1.1,5.89-1.78-8.74-9.73-11-20.76-8.92-33,.17-1-.78-2.33-1.57-3.18-4.47-4.84-7.74-10.31-8.92-16.84-.77-4.22.5-6.51,3.61-7.11s4.91,1.21,6.06,5.2c1,3.28,2.5,6.39,4.15,10.48,1.72-3,2.76-5,3.89-6.85,2-3.21,5.11-4.38,7.52-2.6,2.88,2.13,2.49,4.71,1,7.66a73.49,73.49,0,0,0-5,11.52c-4.29,13.52-.62,25,11.31,32.59,5.17,3.28,11.56,4.62,17.61,6.92,6.36-11.82,16.23-18.73,28.36-22.89,11.79-4,24-4.91,35.5-4.77-.36-6.66-.61-12.9-1.11-19.11a6.61,6.61,0,0,0-1.81-3.92,37.26,37.26,0,0,1-10.15-17.51c-1.08-4,0-6.64,2.88-7.4,3.21-.84,5,.65,6.48,4.59,1.43,3.78,3.32,7.4,5.44,12,1.42-3.05,2.2-4.84,3.08-6.57a24.73,24.73,0,0,1,2.9-5.13c1.1-1.27,2.76-2.65,4.31-2.84,4-.5,5.88,3.58,4.12,7.77-2.59,6.13-5.32,12.29-7,18.69-1.56,5.78-.47,11.64,2.06,17.28,2.16,4.82,6.77,4.9,10.62,6.52a42,42,0,0,1,22.43,21.24,16.61,16.61,0,0,0,1.53-1.07c12.16-11.23,26.48-16.65,43.05-16.6a12.43,12.43,0,0,0,7.1-2.66c8.14-6.34,12.1-14.67,10.83-25.16-.37-3,.5-5.34,3.7-5.94s5.29,1,5.9,4.25A23.34,23.34,0,0,1,533,387,37.31,37.31,0,0,1,525.29,412c-1,1.31-2,2.57-3.28,4.12,17.64,5,31.08,14.27,36.93,32.75,8.84-5.85,16.59-11.7,18.55-22.42.59-3.21,2.35-5.13,5.67-4.59s4.69,3.16,3.88,6.18a46.88,46.88,0,0,1-4.4,11.67c-2.36,4-5.73,7.43-8.74,11.19,1.72.89,3.83,1.54,5.38,2.86,4.12,3.51,7.84,2.39,11.69-.34a36.56,36.56,0,0,0,16-30.24c.41-20-9.28-35.15-25.19-46.46A24.37,24.37,0,0,0,562.82,372.55Zm-2.43,85.7c-.17,2.73-.19,5.21-.5,7.66-1,8.51-3.54,16.45-9.79,22.71-2.24,2.25-4.84,2.91-7.3.49s-1.88-4.91.2-7.33c11.23-13,9.61-34.68-3.41-45.92C521.17,420,490.91,419.42,472,434.55c-5.24,4.19-9.69,8.56-7.05,16.13a4.81,4.81,0,0,1,.09,1.57c-.12,8.63-1.17,17.06-5.54,24.73-1.64,2.88-4.24,3.74-7,2.18s-2.74-3.88-1.71-6.84c1.79-5.16,3.7-10.45,4.28-15.82,2.27-21-10.36-37-31.29-40.1a87.58,87.58,0,0,0-37.1,2.55c-8.48,2.4-16.08,6.42-21.76,13.49-6.06,7.53-8.33,16.36-8.55,25.72-.15,6.55.68,13.12.68,19.69,0,6.27-3.18,10.7-9.06,13-8.3,3.27-21.18-3.74-22.53-12.57-.26-1.69,1.11-4.36,2.57-5.42,2.08-1.51,4.52-.59,6.12,1.69,1.12,1.6,2,3.69,3.49,4.65,2,1.28,4.79,2.62,6.94,2.24,3.12-.56,3.08-3.87,2.76-6.55-1.3-10.76-1.3-21.47,1.38-32-17.63-10.06-41.76-4.2-51.6,14.56-11.65,22.22.18,51.84,24.61,60.2,21.89,7.49,43.61,5.35,64.35-4.72,4.47-2.18,8.21-6,12-9.4.93-.83,1.11-3,.89-4.48q-1.29-8.36-3.16-16.6c-.35-1.53-1.31-3.43-2.57-4.14a34.59,34.59,0,0,1-12.82-13.07c-2.13-3.68-1.77-6.21,1-7.89s5-.68,7.43,2.76c2.05,2.94,4.41,5.67,7.16,9.16,1.21-4.68,2.07-8.22,3.06-11.72.91-3.25,3-4.94,6.48-4.1,2.89.7,3.73,3.34,2.9,7-1.09,4.85-2.41,9.75-2.67,14.68-1,18.79,5.06,34.28,22.5,43.44,14,7.33,29.23,9,44.55,6.88,28.6-4,40.68-26,29.76-52.77-1.13-2.76-1-5.25,1.88-6.79,3.09-1.67,5.44-.28,6.87,2.48,1.52,2.93,2.64,6.07,4.35,10.08,1-3.23,1.85-5.54,2.36-7.92.69-3.18,2.34-5.08,5.7-4.62s4.9,3.12,3.88,6c-1.82,5.25-3.66,10.74-6.8,15.23-2.6,3.72-5,6.94-5.4,11.71a26.59,26.59,0,0,1-3.43,10.79c-2.1,3.58-.86,5.47,1.77,7.48.63.48,1.22,1,1.86,1.46,17.18,12.52,46.61,11.15,62.62-2.9,14.75-13,17-30.29,5.65-45.27A29.77,29.77,0,0,0,560.39,458.25Zm22.84-93.64c2.57-22.51-23.57-47.52-43.47-40.42a8.23,8.23,0,0,0,.08,1.09c.93,4.86,0,7.37-3.32,7.86-4.07.59-5.26-2.13-6.24-5.5a55.83,55.83,0,0,0-13.3-23c-12.23-12.86-27.75-18.06-45-18.84A57.66,57.66,0,0,0,440.66,293c1.55,5,1.14,7.38-1.67,8.54-3.79,1.56-5.45-1-7.59-3.65a56.53,56.53,0,0,0-10.85-10.73c-15.34-10.75-32.72-11.56-50.34-8.47-21.83,3.82-39.21,14.56-49.77,34.79-1.53,2.92-4.07,3.92-6.94,2.39s-3.17-4-1.83-6.79c.76-1.61,1.5-3.23,2.27-4.89-39.8-8.93-76.47,17.56-73.32,51.52a44.47,44.47,0,0,1,29.89,10.39c1.64-4.64,3.16-8.92,4.61-13-2.44-2.58-4.89-4.95-7.09-7.54s-2.19-5.17.44-7.27c2.43-1.95,4.91-1.32,7,.89,1.61,1.7,3.2,3.41,4.73,5,23.25-25.36,50.32-32.65,81.73-19.21.55-5.15.84-10.26,1.72-15.27.72-4.06,3.09-5.57,6.26-4.85,3,.68,4.06,3.18,3.09,7.24a28.86,28.86,0,0,0,2.22,20.44c14.73-14.12,32.08-21.52,52.22-22.2,20.53-.69,38,6.16,52.16,21.87a57,57,0,0,0,.52-11.51c-.2-3.29.44-5.84,4.06-6.51,3.22-.59,5.37,1.29,5.62,5.39.28,4.53.06,9.09.06,13.78,1.23-.3,2.37-.56,3.5-.87,26.79-7.57,55,3.85,65.67,28.3a3.33,3.33,0,0,0,2.12,1.77C568.48,363.33,575.84,363.94,583.23,364.61ZM416.29,540.2c3.46,11,10.67,16.89,22,17.55a64.26,64.26,0,0,0,11-.67c4.38-.52,6.83,1.83,6.31,6.12a5.74,5.74,0,0,0,.72,3.79A54.86,54.86,0,0,1,467.6,598.4a4.11,4.11,0,0,0,2,3.11,26.09,26.09,0,0,0,19-.93c-.47-7.57-.9-14.52-1.37-22-.7-.35-2.23-1.09-3.73-1.9a65.33,65.33,0,0,1-21.08-17.48c-2.73-3.53-2.7-6.34-.16-8.3s5.19-1.25,7.93,2.29c.89,1.13,1.83,2.24,2.83,3.28,12.73,13.27,28.74,19,46.69,19.79,11.91.54,23.7-.55,34.53-6.16,12.7-6.58,18.13-20.94,12.81-33.05-1-2.25-1.87-3.06-4.66-2.33-14.11,3.72-28.22,3.43-41.75-2.22-6-2.52-11.44-6.54-17.26-10-20.51,21.82-81.13,16.93-98.69-11.19l-6.63,5.83c3.39,7.51,8.89,12.09,17.22,12.33,4.31.12,6.89,4.42,4.9,7.19C419.3,538,417.8,538.89,416.29,540.2Z"/><path class="cls-2" d="M562.82,372.55a24.37,24.37,0,0,1,18.94,4.21c15.91,11.31,25.6,26.44,25.19,46.46a36.56,36.56,0,0,1-16,30.24c-3.85,2.73-7.57,3.85-11.69.34-1.55-1.32-3.66-2-5.38-2.86,3-3.76,6.38-7.18,8.74-11.19a46.88,46.88,0,0,0,4.4-11.67c.81-3-.53-5.63-3.88-6.18s-5.08,1.38-5.67,4.59c-2,10.72-9.71,16.57-18.55,22.42-5.85-18.48-19.29-27.76-36.93-32.75,1.24-1.55,2.3-2.81,3.28-4.12A37.31,37.31,0,0,0,533,387a23.34,23.34,0,0,0-.4-2.73c-.61-3.29-2.61-4.87-5.9-4.25s-4.07,2.95-3.7,5.94c1.27,10.49-2.69,18.82-10.83,25.16a12.43,12.43,0,0,1-7.1,2.66c-16.57-.05-30.89,5.37-43.05,16.6a16.61,16.61,0,0,1-1.53,1.07,42,42,0,0,0-22.43-21.24c-3.85-1.62-8.46-1.7-10.62-6.52-2.53-5.64-3.62-11.5-2.06-17.28,1.72-6.4,4.45-12.56,7-18.69,1.76-4.19-.08-8.27-4.12-7.77-1.55.19-3.21,1.57-4.31,2.84a24.73,24.73,0,0,0-2.9,5.13c-.88,1.73-1.66,3.52-3.08,6.57-2.12-4.61-4-8.23-5.44-12-1.49-3.94-3.27-5.43-6.48-4.59-2.91.76-4,3.44-2.88,7.4a37.26,37.26,0,0,0,10.15,17.51,6.61,6.61,0,0,1,1.81,3.92c.5,6.21.75,12.45,1.11,19.11-11.49-.14-23.71.73-35.5,4.77-12.13,4.16-22,11.07-28.36,22.89-6.05-2.3-12.44-3.64-17.61-6.92-11.93-7.58-15.6-19.07-11.31-32.59a73.49,73.49,0,0,1,5-11.52c1.52-3,1.91-5.53-1-7.66-2.41-1.78-5.56-.61-7.52,2.6-1.13,1.87-2.17,3.81-3.89,6.85-1.65-4.09-3.19-7.2-4.15-10.48-1.15-4-2.95-5.8-6.06-5.2s-4.38,2.89-3.61,7.11c1.18,6.53,4.45,12,8.92,16.84.79.85,1.74,2.22,1.57,3.18-2.1,12.22.18,23.25,8.92,33-2.25.68-4.08,1.2-5.89,1.78-13.22,4.22-22.83,12.51-28.8,25.14a13.1,13.1,0,0,1-5.3,5.39c-10.66,5.92-26.39,3.9-35.46-4.26-7.38-6.64-8.59-15-6.57-24.2,2.21-10.06,8.05-17,18.15-19.82,2.91-.81,4.88-2.06,4.91-5.19,0-3.54-3-5.45-7.16-4.41-9.26,2.3-16.61,7.53-21,16-2.73,5.26-4.21,11.16-6.36,17.1A33,33,0,0,1,209,415.26c-7.71-23.37,7.69-47.54,31.78-49.58,11-.93,19.89,3.87,27.27,11.67.84.88,1.07,2.59,1.12,3.94a78.24,78.24,0,0,0,10.26,36c.26.45.59.87.85,1.32,1.66,2.95,4.27,3.72,7,2.15s3.11-4.31,1.43-7.16a67.11,67.11,0,0,1-9.25-27.41c-2.63-25.54,11.65-47.37,36.25-55.13,18.23-5.75,35-3.19,50.12,8.9,2.11,1.69,2.68,3,1.52,5.83-5.28,12.79-4.45,25.67.43,38.41,1.41,3.69,4.12,5.09,7,3.7,3.36-1.62,3.18-4.31,2.08-7.36-5.81-16.17-4.66-31.26,8.35-43.61,11.07-10.51,24.78-15.65,39.9-16.86a55.32,55.32,0,0,1,33.31,7.41c18.06,10.66,24.66,29.73,17,49.29-.42,1.1-.94,2.17-1.33,3.28-1,2.88-.43,5.28,2.56,6.5s5.17.12,6.45-2.7c5-11,6.68-22.4,3.8-34.21-.71-2.88-.21-4.25,2.51-5.38C505.62,337.57,521.37,338,536,348c14.35,9.77,19,24.42,17.78,41-.5,7-2.42,13.94-4,20.84-.94,4.16-.34,6.6,2.6,7.53,3.27,1,5.44-.37,6.8-4.66,3.69-11.65,5.66-23.49,4-35.75C563,375.55,563,374.12,562.82,372.55Z"/><path class="cls-2" d="M560.39,458.25a29.77,29.77,0,0,1,23.44,12.28c11.35,15,9.1,32.31-5.65,45.27-16,14.05-45.44,15.42-62.62,2.9-.64-.47-1.23-1-1.86-1.46-2.63-2-3.87-3.9-1.77-7.48A26.59,26.59,0,0,0,515.36,499c.43-4.77,2.8-8,5.4-11.71,3.14-4.49,5-10,6.8-15.23,1-2.92-.4-5.57-3.88-6s-5,1.44-5.7,4.62c-.51,2.38-1.38,4.69-2.36,7.92-1.71-4-2.83-7.15-4.35-10.08-1.43-2.76-3.78-4.15-6.87-2.48-2.85,1.54-3,4-1.88,6.79,10.92,26.78-1.16,48.73-29.76,52.77-15.32,2.16-30.58.45-44.55-6.88-17.44-9.16-23.5-24.65-22.5-43.44.26-4.93,1.58-9.83,2.67-14.68.83-3.69,0-6.33-2.9-7-3.49-.84-5.57.85-6.48,4.1-1,3.5-1.85,7-3.06,11.72-2.75-3.49-5.11-6.22-7.16-9.16-2.4-3.44-4.69-4.43-7.43-2.76s-3.12,4.21-1,7.89a34.59,34.59,0,0,0,12.82,13.07c1.26.71,2.22,2.61,2.57,4.14q1.88,8.24,3.16,16.6c.22,1.45,0,3.65-.89,4.48-3.78,3.4-7.52,7.22-12,9.4-20.74,10.07-42.46,12.21-64.35,4.72-24.43-8.36-36.26-38-24.61-60.2,9.84-18.76,34-24.62,51.6-14.56-2.68,10.5-2.68,21.21-1.38,32,.32,2.68.36,6-2.76,6.55-2.15.38-4.9-1-6.94-2.24-1.53-1-2.37-3.05-3.49-4.65-1.6-2.28-4-3.2-6.12-1.69-1.46,1.06-2.83,3.73-2.57,5.42,1.35,8.83,14.23,15.84,22.53,12.57,5.88-2.32,9.06-6.75,9.06-13,0-6.57-.83-13.14-.68-19.69.22-9.36,2.49-18.19,8.55-25.72,5.68-7.07,13.28-11.09,21.76-13.49a87.58,87.58,0,0,1,37.1-2.55c20.93,3.09,33.56,19.06,31.29,40.1-.58,5.37-2.49,10.66-4.28,15.82-1,3-.95,5.35,1.71,6.84s5.39.7,7-2.18c4.37-7.67,5.42-16.1,5.54-24.73a4.81,4.81,0,0,0-.09-1.57c-2.64-7.57,1.81-11.94,7.05-16.13,18.93-15.13,49.19-14.58,67.61,1.31,13,11.24,14.64,32.88,3.41,45.92-2.08,2.42-2.6,5-.2,7.33s5.06,1.76,7.3-.49c6.25-6.26,8.74-14.2,9.79-22.71C560.2,463.46,560.22,461,560.39,458.25Z"/><path class="cls-2" d="M583.23,364.61c-7.39-.67-14.75-1.28-22.09-2.06a3.33,3.33,0,0,1-2.12-1.77c-10.68-24.45-38.88-35.87-65.67-28.3-1.13.31-2.27.57-3.5.87,0-4.69.22-9.25-.06-13.78-.25-4.1-2.4-6-5.62-5.39-3.62.67-4.26,3.22-4.06,6.51a57,57,0,0,1-.52,11.51c-14.18-15.71-31.63-22.56-52.16-21.87-20.14.68-37.49,8.08-52.22,22.2A28.86,28.86,0,0,1,373,312.09c1-4.06-.1-6.56-3.09-7.24-3.17-.72-5.54.79-6.26,4.85-.88,5-1.17,10.12-1.72,15.27-31.41-13.44-58.48-6.15-81.73,19.21-1.53-1.63-3.12-3.34-4.73-5-2.08-2.21-4.56-2.84-7-.89-2.63,2.1-2.52,4.82-.44,7.27s4.65,5,7.09,7.54c-1.45,4.08-3,8.36-4.61,13a44.47,44.47,0,0,0-29.89-10.39c-3.15-34,33.52-60.45,73.32-51.52-.77,1.66-1.51,3.28-2.27,4.89-1.34,2.8-.89,5.35,1.83,6.79s5.41.53,6.94-2.39c10.56-20.23,27.94-31,49.77-34.79,17.62-3.09,35-2.28,50.34,8.47a56.53,56.53,0,0,1,10.85,10.73c2.14,2.63,3.8,5.21,7.59,3.65,2.81-1.16,3.22-3.51,1.67-8.54A57.66,57.66,0,0,1,472,285.81c17.25.78,32.77,6,45,18.84a55.83,55.83,0,0,1,13.3,23c1,3.37,2.17,6.09,6.24,5.5,3.3-.49,4.25-3,3.32-7.86a8.23,8.23,0,0,1-.08-1.09C559.66,317.09,585.8,342.1,583.23,364.61Z"/><path class="cls-2" d="M416.29,540.2c1.51-1.31,3-2.21,4-3.53,2-2.77-.59-7.07-4.9-7.19-8.33-.24-13.83-4.82-17.22-12.33l6.63-5.83c17.56,28.12,78.18,33,98.69,11.19,5.82,3.42,11.23,7.44,17.26,10,13.53,5.65,27.64,5.94,41.75,2.22,2.79-.73,3.67.08,4.66,2.33,5.32,12.11-.11,26.47-12.81,33.05-10.83,5.61-22.62,6.7-34.53,6.16-17.95-.8-34-6.52-46.69-19.79-1-1-1.94-2.15-2.83-3.28-2.74-3.54-5.33-4.3-7.93-2.29s-2.57,4.77.16,8.3a65.33,65.33,0,0,0,21.08,17.48c1.5.81,3,1.55,3.73,1.9.47,7.51.9,14.46,1.37,22a26.09,26.09,0,0,1-19,.93,4.11,4.11,0,0,1-2-3.11A54.86,54.86,0,0,0,456.35,567a5.74,5.74,0,0,1-.72-3.79c.52-4.29-1.93-6.64-6.31-6.12a64.26,64.26,0,0,1-11,.67C427,557.09,419.75,551.2,416.29,540.2Z"/></svg>